<svg xmlns="http://www.w3.org/2000/svg" viewBox="0 0 64 64">
  <defs>
    <linearGradient id="g" x1="0" y1="0" x2="1" y2="1">
      <stop stop-color="#6d5dfc"/>
      <stop offset="1" stop-color="#9d71ff"/>
    </linearGradient>
  </defs>
  <rect width="64" height="64" rx="18" fill="url(#g)"/>
  <path d="M42 21c-3-3-7-5-12-5-7 0-12 4-12 10 0 7 6 9 12 11 5 2 8 3 8 6 0 3-3 5-7 5-5 0-9-2-13-6l-5 6c5 5 11 8 18 8 9 0 15-5 15-13 0-7-5-10-13-13-5-2-7-3-7-5 0-2 2-4 5-4 3 0 6 1 9 4z" fill="white"/>
</svg>
